<svg id="regular" enable-background="new 0 0 24 24" height="512" viewBox="0 0 24 24" width="512" xmlns="http://www.w3.org/2000/svg"><path d="m12 23.25c-6.204 0-11.25-5.047-11.25-11.25s5.046-11.25 11.25-11.25 11.25 5.047 11.25 11.25-5.046 11.25-11.25 11.25z" fill="#2196f3"/><path d="m19.25 9.15v5.7c0 .39-.43.63-.77.42l-3.23-2.02v1.5c0 .83-.67 1.5-1.5 1.5h-7.5c-.83 0-1.5-.67-1.5-1.5v-5.5c0-.83.67-1.5 1.5-1.5h7.5c.83 0 1.5.67 1.5 1.5v1.5l3.23-2.02c.34-.21.77.03.77.42z" fill="#fafafa"/><path d="m13.75 17h-7.5c-1.24 0-2.25-1.009-2.25-2.25v-5.5c0-1.241 1.01-2.25 2.25-2.25h7.5c1.24 0 2.25 1.009 2.25 2.25v5.5c0 1.241-1.01 2.25-2.25 2.25zm-7.5-8.5c-.413 0-.75.336-.75.75v5.5c0 .414.337.75.75.75h7.5c.413 0 .75-.336.75-.75v-5.5c0-.414-.337-.75-.75-.75z"/><path d="m18.75 16.098c-.229 0-.46-.063-.662-.189l-3.235-2.022c-.352-.22-.458-.683-.238-1.034.218-.351.681-.458 1.033-.239l2.853 1.783v-4.793l-2.853 1.783c-.353.219-.815.112-1.033-.239-.22-.351-.113-.814.238-1.034l3.235-2.022c.386-.241.871-.252 1.269-.033.396.22.643.639.643 1.093v5.695c0 .454-.247.874-.644 1.094-.188.105-.397.157-.606.157z"/><path d="m12 24c-6.617 0-12-5.383-12-12s5.383-12 12-12 12 5.383 12 12-5.383 12-12 12zm0-22.5c-5.79 0-10.5 4.71-10.5 10.5s4.71 10.5 10.5 10.5 10.5-4.71 10.5-10.5-4.71-10.5-10.5-10.5z"/></svg>