<!DOCTYPE >
<svg xmlns="http://www.w3.org/2000/svg" xmlns:xlink="http://www.w3.org/1999/xlink" version="1.1" id="Capa_1" x="0px" y="0px" width="21px" height="21px" viewBox="0 0 79.292 79.292" style="enable-background:new 0 0 79.292 79.292;" xml:space="preserve"  data-toggle="tooltip" data-placement="top" title="Earn Cash">

<g>
	<g>
		<path d="M8.958,51.52c-0.896-2.912-1.345-6.049-1.345-9.184c0-13.664,9.185-25.312,21.952-29.121v3.809l16.802-8.512L29.566,0    v6.048C13.214,10.304,0.894,24.864,0.894,42.336c0,2.463,0.225,4.928,0.672,7.168l0.672-3.584L8.958,51.52z" fill="#c6c6c6"/>
		<path d="M63.837,47.711l-1.12,18.816l15.681-10.303l-5.15-3.139c1.119-3.357,1.566-6.941,1.566-10.752    c0-16.126-10.527-29.791-24.863-34.943l2.688,2.016l-8.062,3.36c13.437,3.136,23.518,15.232,23.518,29.567    c0,2.465-0.448,4.928-0.896,7.168L63.837,47.711z" fill="#c6c6c6"/>
		<path d="M60.253,62.719c-5.602,6.049-13.439,9.857-22.399,9.857c-8.063,0-15.456-3.361-20.832-8.512l3.36-1.793L4.703,51.967    l1.119,18.816l5.152-3.137c6.72,7.168,16.353,11.646,26.88,11.646c9.185,0,17.474-3.358,23.968-8.959l-2.688,0.896L60.253,62.719z    " fill="#c6c6c6"/>
		<path d="M35.39,21.28v4.928c-5.6,1.121-8.736,4.705-8.736,9.185c0,4.928,3.809,7.616,9.185,9.407    c3.808,1.347,5.375,2.466,5.375,4.48s-2.017,3.137-4.927,3.137c-3.36,0-6.272-1.121-8.513-2.24l-1.567,6.05    c2.016,1.119,5.376,2.016,8.735,2.237v4.931h5.152v-5.377c5.823-1.119,9.184-4.929,9.184-9.408c0-4.703-2.464-7.394-8.512-9.631    c-4.479-1.568-6.271-2.688-6.271-4.479c0-1.345,1.119-2.912,4.479-2.912c3.809,0,6.048,1.121,7.393,1.793l1.567-5.824    c-1.792-0.896-4.032-1.568-7.393-1.793v-4.479L35.39,21.28L35.39,21.28z" fill="#c6c6c6"/>
	</g>
</g>
<g>
</g>
<g>
</g>
<g>
</g>
<g>
</g>
<g>
</g>
<g>
</g>
<g>
</g>
<g>
</g>
<g>
</g>
<g>
</g>
<g>
</g>
<g>
</g>
<g>
</g>
<g>
</g>
<g>
</g>

</svg>
