<svg xmlns="http://www.w3.org/2000/svg" height="19px" width="19px" viewBox="0 0 24 24" class="ccl-0f24ac4b87ce1f67 ccl-cd43b511fc3197b8 ccl-0f084ffde1637b39" data-reactid=".looayv4cn4.1.0.0.0.1.$bar-link-$5=190-2.0.0.0.0"><path d="M14,15 L14,12 L10,12 L10,15 L14,15 Z M15,15 L19.0988383,15 L19.8055064,12 L15,12 L15,15 Z M14,9 L10,9 L10,11 L14,11 L14,9 Z M15,9 L15,11 L20,11 L20,11.1743211 L20.5121744,9 L15,9 Z M14,18 L14,16 L10,16 L10,18 L14,18 Z M15,18 L18.3921702,18 L18.8632823,16 L15,16 L15,18 Z M9,15 L9,12 L4.19449364,12 L4.9011617,15 L9,15 Z M9,9 L3.48782558,9 L4,11.1743211 L4,11 L9,11 L9,9 Z M9,18 L9,16 L5.13671772,16 L5.60782976,18 L9,18 Z M7,7 L7,3 L17,3 L17,7 L23,7 L20,20 L4,20 L1,7 L7,7 Z M9,7 L15,7 L15,5 L9,5 L9,7 Z" data-reactid=".looayv4cn4.1.0.0.0.1.$bar-link-$5=190-2.0.0.0.0.0"></path></svg>