<svg version="1.1" id="Layer_1" xmlns="http://www.w3.org/2000/svg" xmlns:xlink="http://www.w3.org/1999/xlink" x="0px" y="0px"
     width="159px" height="31px" viewBox="0 0 257 50" enable-background="new 0 0 257 50" xml:space="preserve">
<g>
    <path fill="#11172B" d="M41.703,38.955V3.453h9.59v12.708c0.866-1.005,2.041-1.849,3.522-2.534c1.48-0.684,3.253-1.027,5.314-1.027
        c2.842,0,4.981,0.737,6.419,2.21c1.439,1.473,2.157,3.395,2.157,5.77v18.374h-9.591V24.635c0-1.264-0.316-2.174-0.948-2.729
        c-0.633-0.555-1.555-0.833-2.768-0.833c-0.971,0-1.763,0.188-2.379,0.561c-0.617,0.372-1.19,0.861-1.728,1.468v15.854H41.703z"/>
    <path fill="#11172B" d="M73.249,31.209c-0.655-1.629-0.983-3.343-0.983-5.145s0.328-3.514,0.983-5.135
        c0.656-1.619,1.582-3.048,2.782-4.286c1.2-1.239,2.713-2.224,4.542-2.95c1.827-0.728,3.854-1.093,6.079-1.093
        c2.224,0,4.259,0.365,6.104,1.093c1.845,0.727,3.368,1.711,4.568,2.95c1.2,1.238,2.125,2.667,2.782,4.286
        c0.654,1.621,0.984,3.331,0.984,5.135s-0.33,3.519-0.984,5.145c-0.654,1.628-1.582,3.066-2.782,4.315
        c-1.2,1.248-2.721,2.24-4.568,2.976c-1.847,0.737-3.88,1.107-6.104,1.107c-2.225,0-4.25-0.37-6.079-1.107
        c-1.83-0.735-3.344-1.728-4.542-2.976C74.833,34.275,73.905,32.839,73.249,31.209z M82.063,26.064c0,1.49,0.403,2.709,1.211,3.651
        c0.808,0.944,1.933,1.417,3.374,1.417c1.46,0,2.597-0.473,3.415-1.417c0.816-0.942,1.226-2.161,1.226-3.651
        c0-1.473-0.409-2.673-1.226-3.599c-0.818-0.926-1.953-1.39-3.415-1.39c-1.424,0-2.544,0.467-3.361,1.402
        C82.471,23.414,82.063,24.609,82.063,26.064z"/>
    <path fill="#11172B" d="M102.518,35.653l3.846-6.443c1.057,0.814,2.513,1.56,4.366,2.233c1.853,0.678,3.482,1.015,4.886,1.015
        c1.714,0,2.572-0.37,2.572-1.117c0-0.277-0.208-0.506-0.624-0.689c-0.417-0.18-0.966-0.313-1.651-0.388
        c-0.684-0.079-1.464-0.192-2.338-0.34c-0.874-0.146-1.771-0.311-2.688-0.493c-0.917-0.182-1.814-0.482-2.688-0.899
        c-0.876-0.416-1.655-0.907-2.339-1.48c-0.685-0.57-1.235-1.355-1.65-2.352c-0.416-0.996-0.624-2.135-0.624-3.417
        c0-1.162,0.254-2.262,0.767-3.301c0.51-1.04,1.239-1.961,2.184-2.768c0.944-0.805,2.152-1.441,3.626-1.909
        c1.475-0.468,3.12-0.702,4.939-0.702c4.089,0,7.796,1.101,11.123,3.301l-3.508,6.236c-0.866-0.727-1.992-1.354-3.379-1.884
        c-1.385-0.527-2.78-0.791-4.184-0.791c-0.709,0-1.286,0.1-1.729,0.299c-0.44,0.2-0.662,0.471-0.662,0.818
        c0,0.242,0.208,0.446,0.624,0.609c0.417,0.166,0.966,0.288,1.65,0.365c0.685,0.078,1.465,0.199,2.339,0.364
        c0.874,0.166,1.767,0.342,2.677,0.534c0.908,0.189,1.801,0.506,2.675,0.948c0.875,0.44,1.655,0.961,2.339,1.56
        c0.684,0.597,1.235,1.395,1.65,2.39c0.416,0.996,0.624,2.136,0.624,3.418c0,2.616-1.096,4.741-3.286,6.38
        c-2.193,1.638-5.16,2.457-8.902,2.457c-2.339,0-4.683-0.37-7.03-1.107C105.77,37.765,103.903,36.816,102.518,35.653z"/>
    <path fill="#11172B" d="M128.48,21.541v-8.289h4.263V6.208h9.59v7.044h5.223v8.289h-5.223v7.199c0,0.678,0.198,1.243,0.598,1.703
        c0.397,0.46,0.907,0.689,1.531,0.689c0.4,0,0.789-0.047,1.172-0.142c0.381-0.098,0.624-0.205,0.728-0.324l1.714,7.224
        c-0.555,0.504-1.393,0.913-2.52,1.234s-2.451,0.482-3.976,0.482c-2.86,0-5.047-0.684-6.563-2.053
        c-1.519-1.368-2.274-3.388-2.274-6.055v-9.955h-4.263V21.541z"/>
    <path fill="#11172B" d="M142.801,47.636l2.286-7.093c0.537,0.396,1.02,0.664,1.441,0.803c0.426,0.139,1.012,0.208,1.755,0.208
        c0.902,0,1.594-0.314,2.079-0.948c0.485-0.633,0.728-1.556,0.728-2.768V13.252h9.591v24.586c0,3.481-0.893,6.277-2.676,8.382
        c-1.786,2.104-4.464,3.158-8.03,3.158c-1.854,0-3.238-0.123-4.144-0.367C144.919,48.77,143.911,48.312,142.801,47.636z
         M152.092,9.808c-1.049-1.047-1.572-2.317-1.572-3.807c0-1.488,0.523-2.758,1.572-3.806c1.046-1.049,2.318-1.573,3.806-1.573
        c1.49,0,2.756,0.524,3.796,1.573c1.039,1.048,1.56,2.317,1.56,3.806c0,1.489-0.521,2.76-1.56,3.807
        c-1.04,1.048-2.305,1.572-3.796,1.572C154.407,11.38,153.138,10.855,152.092,9.808z"/>
    <path fill="#11172B" d="M164.242,26.036c0-4.132,1.068-7.404,3.21-9.815c2.139-2.413,4.845-3.62,8.121-3.62
        c2.944,0,5.343,1.111,7.198,3.334v-2.683h9.643v25.703h-9.589v-2.703c-1.994,2.235-4.408,3.353-7.252,3.353
        c-1.578,0-3.046-0.297-4.405-0.888c-1.359-0.587-2.558-1.444-3.596-2.563c-1.04-1.12-1.855-2.547-2.446-4.283
        C164.535,30.135,164.242,28.19,164.242,26.036z M175.403,22.394c-0.91,0.879-1.364,2.095-1.364,3.643
        c0,1.553,0.46,2.789,1.377,3.713c0.92,0.921,2.054,1.381,3.405,1.381c0.678,0,1.405-0.16,2.184-0.481
        c0.781-0.321,1.386-0.755,1.82-1.294v-6.584c-0.435-0.522-1.036-0.936-1.809-1.24c-0.77-0.305-1.502-0.458-2.193-0.458
        C177.451,21.073,176.313,21.515,175.403,22.394z"/>
    <path fill="#11172B" d="M197.688,38.955V13.252h9.591v2.91c0.863-1.005,2.04-1.849,3.521-2.533
        c1.484-0.684,3.254-1.028,5.317-1.028c2.839,0,4.98,0.754,6.417,2.263c1.44,1.508,2.158,3.456,2.158,5.847v18.245h-9.589V24.738
        c0-2.443-1.241-3.665-3.718-3.665c-0.97,0-1.764,0.188-2.378,0.561c-0.614,0.372-1.191,0.861-1.727,1.468v15.854H197.688z"/>
    <path fill="#11172B" d="M228.254,26.064c0-1.854,0.341-3.604,1.024-5.25c0.688-1.646,1.637-3.076,2.85-4.289
        c1.212-1.213,2.693-2.169,4.444-2.872c1.748-0.702,3.641-1.053,5.666-1.053c3.879,0,7.078,1.309,9.588,3.925
        c2.515,2.616,3.771,6.134,3.771,10.552v1.977h-17.441c0.279,0.902,0.902,1.667,1.871,2.3c0.972,0.634,2.189,0.95,3.664,0.95
        c0.831,0,1.874-0.174,3.131-0.521c1.257-0.346,2.181-0.779,2.77-1.299l3.95,5.926c-1.213,1.039-2.832,1.831-4.862,2.378
        c-2.025,0.545-4.063,0.819-6.106,0.819c-2.685,0-5.106-0.532-7.265-1.598c-2.156-1.066-3.872-2.634-5.145-4.706
        C228.891,31.232,228.254,28.819,228.254,26.064z M238.052,22.998h8.445c-0.088-0.329-0.208-0.65-0.362-0.961
        c-0.159-0.312-0.388-0.641-0.691-0.987c-0.304-0.348-0.734-0.624-1.285-0.832c-0.56-0.208-1.197-0.312-1.923-0.312
        C240.001,19.904,238.605,20.935,238.052,22.998z"/>
</g>
<g>
    <title>Layer 1</title>
    <path id="svg_1" fill="#E41937" d="M11.737,37.994c-6.974-2.044-9.792-8.517-9.513-14.58c0.121-2.498,1.136-4.871,2.856-6.684
        c-0.317,1.361-0.076,5.772,2.344,7.724c-0.509-2.117-0.458-4.332,0.148-6.424c1.786-4.854,6.85-6.158,6.321-10.582
        c-0.14-1.438-0.58-2.829-1.294-4.084c2.896,0.978,5.447,2.774,7.34,5.174c1.51,1.938,2.327,4.323,2.321,6.779
        c-0.008,0.871-0.109,1.735-0.306,2.584c0.392-1.036,0.98-1.984,1.732-2.797c1.312-1.285,2.911-2.24,4.665-2.785
        c-1.017,1.979-1.38,4.23-1.036,6.429c0.408,2.456,2.307,5.693,1.836,9.54c-0.329,4.559-3.479,8.424-7.88,9.672
        C18.136,37.226,14.869,37.238,11.737,37.994z"/>
    <path id="svg_2" fill="#98012E" d="M21.274,37.96c1.948-2.389,3.341-6.823,1.074-9.356c-0.171,1.49-0.834,2.879-1.879,3.95
        c0.396-0.756,0.536-1.622,0.408-2.467c-0.328-3.118-3.19-3.673-3.297-5.651c-0.097-0.848,0.071-1.703,0.476-2.45
        c-1.373,0.505-2.563,1.409-3.422,2.594c-0.71,0.988-1.088,2.179-1.083,3.397c0.003,0.435,0.052,0.869,0.142,1.295
        c-0.179-0.514-0.453-0.989-0.808-1.402c-0.6-0.636-1.345-1.115-2.174-1.396c1.481,3.787-0.606,4.036-1.032,6.298
        c-0.537,2.123,1.387,4.479,2.06,5.223c1.545,0.485,3.141,0.789,4.755,0.909C18.121,38.798,19.728,38.479,21.274,37.96z"/>
</g>
<rect fill="none" width="257" height="50"/>
</svg>
