<svg version="1.1" id="Layer_1" xmlns="http://www.w3.org/2000/svg" xmlns:xlink="http://www.w3.org/1999/xlink" x="0px" y="0px"
	 width="184px" height="44px" viewBox="0 0 184 44" enable-background="new 0 0 184 44" xml:space="preserve">
<g>
	<g>
		<title>Layer 1</title>
		<g id="svg_1">
			<path fill="#E41937" d="M8.107,31.688c-4.324-1.268-6.071-5.28-5.898-9.039c0.075-1.549,0.704-3.021,1.771-4.145
				c-0.197,0.844-0.047,3.579,1.453,4.789c-0.316-1.313-0.284-2.686,0.092-3.983c1.107-3.009,4.247-3.818,3.919-6.561
				c-0.087-0.891-0.36-1.754-0.803-2.532c1.796,0.606,3.376,1.72,4.55,3.208c0.937,1.201,1.443,2.68,1.439,4.203
				c-0.005,0.54-0.068,1.076-0.189,1.602c0.242-0.642,0.607-1.23,1.074-1.734c0.813-0.797,1.805-1.389,2.892-1.727
				c-0.63,1.227-0.855,2.623-0.642,3.986c0.252,1.522,1.43,3.53,1.139,5.915c-0.204,2.826-2.157,5.223-4.887,5.996
				C12.074,31.211,10.049,31.219,8.107,31.688z"/>
		</g>
		<g id="svg_2">
			<path fill="#98012E" d="M14.02,31.666c1.209-1.48,2.072-4.23,0.666-5.801c-0.105,0.924-0.517,1.785-1.164,2.449
				c0.244-0.469,0.332-1.006,0.252-1.529c-0.203-1.934-1.978-2.277-2.043-3.504c-0.061-0.525,0.043-1.057,0.295-1.52
				c-0.852,0.313-1.589,0.874-2.123,1.608c-0.44,0.612-0.675,1.351-0.671,2.106c0.002,0.27,0.032,0.539,0.088,0.803
				c-0.111-0.318-0.281-0.613-0.501-0.869c-0.372-0.395-0.834-0.691-1.348-0.865c0.918,2.348-0.376,2.502-0.64,3.904
				c-0.333,1.316,0.86,2.777,1.277,3.238c0.958,0.301,1.947,0.489,2.948,0.563C12.064,32.186,13.061,31.988,14.02,31.666z"/>
		</g>
	</g>
	<g>
		<path fill="#11172B" d="M26.607,30.766l0.718-1.979c0.41,0.348,0.865,0.522,1.364,0.522c0.424,0,0.76-0.139,1.01-0.415
			c0.25-0.277,0.375-0.689,0.375-1.236V17.241h2.666v10.417c0,1.189-0.304,2.127-0.913,2.811s-1.507,1.025-2.697,1.025
			c-0.615,0-1.092-0.054-1.43-0.159C27.36,31.229,26.997,31.039,26.607,30.766z M30.283,15.677
			c-0.312-0.311-0.467-0.685-0.467-1.123s0.155-0.81,0.467-1.118c0.311-0.308,0.682-0.461,1.112-0.461
			c0.444,0,0.822,0.154,1.133,0.461s0.467,0.68,0.467,1.118s-0.156,0.812-0.467,1.123c-0.311,0.312-0.688,0.467-1.133,0.467
			C30.965,16.144,30.594,15.988,30.283,15.677z"/>
		<path fill="#11172B" d="M34.738,22.296c0-1.62,0.418-2.91,1.256-3.871c0.837-0.96,1.916-1.44,3.235-1.44
			c1.271,0,2.314,0.52,3.127,1.559v-1.302h2.666v10.141h-2.666V26.08c-0.827,1.039-1.87,1.559-3.127,1.559
			c-1.313,0-2.389-0.476-3.23-1.426S34.738,23.957,34.738,22.296z M37.486,22.296c0,0.882,0.239,1.597,0.718,2.144
			s1.101,0.82,1.866,0.82c0.444,0,0.882-0.108,1.313-0.323c0.431-0.216,0.755-0.491,0.974-0.825v-3.579
			c-0.219-0.335-0.543-0.613-0.974-0.836c-0.431-0.222-0.868-0.333-1.313-0.333c-0.766,0-1.388,0.27-1.866,0.81
			S37.486,21.421,37.486,22.296z"/>
		<path fill="#11172B" d="M47.689,27.382V17.241h2.666v1.302c0.369-0.431,0.863-0.798,1.482-1.103
			c0.618-0.304,1.307-0.456,2.066-0.456c1.087,0,1.909,0.286,2.466,0.856c0.557,0.571,0.835,1.365,0.835,2.384v7.157h-2.666V21.25
			c0-0.67-0.163-1.152-0.487-1.446c-0.325-0.294-0.788-0.441-1.39-0.441c-0.485,0-0.926,0.111-1.323,0.333
			c-0.396,0.223-0.725,0.501-0.984,0.836v6.85H47.689z"/>
		<path fill="#11172B" d="M59.194,22.296c0-0.978,0.222-1.87,0.667-2.676s1.07-1.447,1.876-1.922s1.709-0.713,2.707-0.713
			c1.518,0,2.743,0.515,3.676,1.543c0.933,1.029,1.399,2.371,1.399,4.025v0.625h-7.537c0.096,0.656,0.4,1.199,0.913,1.631
			c0.513,0.43,1.183,0.646,2.01,0.646c0.451,0,0.935-0.091,1.451-0.271c0.516-0.181,0.928-0.423,1.235-0.724l1.189,1.764
			c-0.492,0.451-1.109,0.801-1.851,1.047c-0.742,0.246-1.516,0.369-2.323,0.369c-1.565,0-2.859-0.49-3.881-1.472
			S59.194,23.896,59.194,22.296z M61.962,21.332h4.994c-0.021-0.26-0.082-0.509-0.185-0.749s-0.248-0.468-0.436-0.687
			c-0.188-0.219-0.446-0.395-0.774-0.528c-0.328-0.133-0.701-0.2-1.118-0.2c-0.396,0-0.752,0.065-1.066,0.195
			s-0.567,0.303-0.759,0.518c-0.191,0.216-0.342,0.445-0.451,0.688S61.99,21.065,61.962,21.332z"/>
		<path fill="#11172B" d="M77.051,15.677c-0.311-0.311-0.467-0.685-0.467-1.123s0.156-0.81,0.467-1.118
			c0.312-0.308,0.682-0.461,1.113-0.461c0.443,0,0.821,0.154,1.133,0.461c0.311,0.308,0.467,0.68,0.467,1.118
			s-0.156,0.812-0.467,1.123c-0.312,0.312-0.689,0.467-1.133,0.467C77.732,16.144,77.362,15.988,77.051,15.677z M76.841,27.382
			V17.241h2.666v10.141H76.841z"/>
		<path fill="#11172B" d="M81.274,26.059l1.158-1.928c0.397,0.377,0.929,0.705,1.596,0.984c0.667,0.281,1.305,0.421,1.913,0.421
			c0.559,0,0.981-0.097,1.268-0.292c0.286-0.194,0.43-0.455,0.43-0.783c0-0.219-0.111-0.399-0.334-0.543
			c-0.222-0.143-0.511-0.252-0.865-0.324c-0.354-0.074-0.744-0.154-1.168-0.242c-0.425-0.089-0.851-0.201-1.278-0.338
			c-0.427-0.137-0.816-0.311-1.169-0.523c-0.352-0.212-0.639-0.514-0.861-0.908c-0.222-0.393-0.333-0.859-0.333-1.399
			c0-0.896,0.369-1.652,1.108-2.271c0.739-0.618,1.756-0.928,3.05-0.928c1.557,0,2.915,0.461,4.075,1.384l-1.076,1.897
			c-0.32-0.335-0.752-0.615-1.295-0.841c-0.542-0.226-1.11-0.338-1.704-0.338c-0.478,0-0.86,0.095-1.15,0.285
			c-0.289,0.19-0.435,0.433-0.435,0.728c0,0.183,0.082,0.336,0.246,0.459s0.389,0.216,0.672,0.279
			c0.284,0.063,0.606,0.134,0.967,0.213c0.361,0.08,0.73,0.161,1.107,0.244c0.378,0.083,0.746,0.208,1.106,0.372
			c0.361,0.165,0.684,0.355,0.969,0.57c0.284,0.215,0.513,0.508,0.685,0.878s0.258,0.798,0.258,1.282
			c0,0.957-0.392,1.736-1.173,2.338c-0.782,0.602-1.859,0.902-3.231,0.902c-0.883,0-1.726-0.141-2.529-0.421
			S81.808,26.551,81.274,26.059z"/>
		<path fill="#11172B" d="M97.555,31.248V17.241h2.666v1.282c0.813-1.025,1.855-1.538,3.127-1.538c1.33,0,2.411,0.472,3.243,1.415
			s1.248,2.242,1.248,3.896s-0.416,2.958-1.248,3.912c-0.832,0.953-1.913,1.431-3.243,1.431c-1.251,0-2.294-0.52-3.127-1.559v5.168
			H97.555z M100.221,24.08c0.225,0.328,0.557,0.607,0.994,0.836s0.868,0.344,1.292,0.344c0.766,0,1.388-0.273,1.866-0.82
			s0.718-1.262,0.718-2.144c0-0.875-0.239-1.583-0.718-2.123s-1.101-0.81-1.866-0.81c-0.431,0-0.861,0.107-1.292,0.323
			c-0.431,0.215-0.763,0.49-0.994,0.825V24.08z"/>
		<path fill="#11172B" d="M109.771,24.957c-0.419-0.803-0.629-1.69-0.629-2.661s0.21-1.854,0.629-2.65s1.039-1.439,1.86-1.928
			s1.771-0.733,2.848-0.733c1.084,0,2.038,0.245,2.863,0.733c0.824,0.489,1.446,1.131,1.866,1.928
			c0.419,0.796,0.628,1.68,0.628,2.65s-0.209,1.858-0.628,2.661c-0.42,0.803-1.042,1.451-1.866,1.943
			c-0.825,0.492-1.779,0.738-2.863,0.738c-1.077,0-2.026-0.246-2.848-0.738S110.189,25.76,109.771,24.957z M111.89,22.296
			c0,0.834,0.231,1.536,0.693,2.107c0.463,0.571,1.095,0.856,1.896,0.856c0.809,0,1.445-0.284,1.911-0.852s0.698-1.271,0.698-2.112
			c0-0.827-0.232-1.522-0.698-2.087c-0.466-0.563-1.103-0.846-1.911-0.846c-0.801,0-1.433,0.282-1.896,0.846
			C112.121,20.773,111.89,21.469,111.89,22.296z"/>
		<path fill="#11172B" d="M120.533,17.241h2.748l1.906,6.853l2.236-6.853h2.363l2.223,6.81l1.895-6.81h2.789l-3.087,10.141h-2.851
			l-2.084-6.718l-2.077,6.718h-2.975L120.533,17.241z"/>
		<path fill="#11172B" d="M137.37,22.296c0-0.978,0.222-1.87,0.667-2.676c0.443-0.807,1.069-1.447,1.876-1.922
			s1.709-0.713,2.707-0.713c1.518,0,2.743,0.515,3.676,1.543c0.934,1.029,1.399,2.371,1.399,4.025v0.625h-7.536
			c0.096,0.656,0.399,1.199,0.913,1.631c0.512,0.43,1.182,0.646,2.01,0.646c0.451,0,0.935-0.091,1.45-0.271
			c0.517-0.181,0.929-0.423,1.235-0.724l1.189,1.764c-0.492,0.451-1.108,0.801-1.851,1.047c-0.741,0.246-1.516,0.369-2.322,0.369
			c-1.565,0-2.859-0.49-3.881-1.472C137.881,25.186,137.37,23.896,137.37,22.296z M140.139,21.332h4.994
			c-0.021-0.26-0.082-0.509-0.186-0.749c-0.102-0.239-0.247-0.468-0.436-0.687c-0.188-0.219-0.445-0.395-0.773-0.528
			c-0.328-0.133-0.701-0.2-1.118-0.2c-0.396,0-0.752,0.065-1.066,0.195s-0.567,0.303-0.759,0.518
			c-0.191,0.216-0.342,0.445-0.451,0.688S140.166,21.065,140.139,21.332z"/>
		<path fill="#11172B" d="M149.623,27.382V17.241h2.666v1.364c0.391-0.465,0.877-0.851,1.462-1.159
			c0.584-0.308,1.177-0.461,1.778-0.461v2.604c-0.184-0.041-0.43-0.062-0.738-0.062c-0.451,0-0.926,0.115-1.425,0.344
			s-0.858,0.5-1.077,0.815v6.696H149.623z"/>
		<path fill="#11172B" d="M156.104,19.568v-2.328h1.682v-0.42c0-1.148,0.314-2.044,0.944-2.687c0.631-0.643,1.446-0.964,2.45-0.964
			c0.779,0,1.425,0.138,1.938,0.412l-0.554,1.986c-0.205-0.143-0.492-0.214-0.861-0.214c-0.39,0-0.695,0.126-0.918,0.377
			c-0.222,0.251-0.333,0.615-0.333,1.091v0.418h2.061v2.328h-2.061v7.813h-2.666v-7.813H156.104z"/>
		<path fill="#11172B" d="M164.039,24.439v-7.199h2.666v6.152c0,0.67,0.161,1.148,0.482,1.436s0.782,0.432,1.385,0.432
			c0.478,0,0.919-0.109,1.322-0.328s0.734-0.492,0.994-0.82v-6.871h2.666v10.141h-2.666V26.1c-0.403,0.438-0.907,0.804-1.512,1.098
			c-0.605,0.294-1.291,0.441-2.057,0.441c-1.086,0-1.905-0.281-2.455-0.842C164.314,26.236,164.039,25.451,164.039,24.439z"/>
		<path fill="#11172B" d="M176.189,24.839V13.375h2.666v10.756c0,0.328,0.082,0.599,0.246,0.811s0.391,0.318,0.678,0.318
			c0.19,0,0.374-0.031,0.548-0.093c0.175-0.062,0.299-0.137,0.374-0.226l0.574,2.041c-0.485,0.438-1.227,0.656-2.225,0.656
			c-0.93,0-1.639-0.238-2.128-0.713C176.435,26.451,176.189,25.755,176.189,24.839z"/>
	</g>
</g>
<rect fill="none" width="184" height="44"/>
<rect x="30.5" y="15" fill="none" width="124" height="15"/>
</svg>
