<svg xmlns="http://www.w3.org/2000/svg" xmlns:xlink="http://www.w3.org/1999/xlink" viewBox="0 0 240 40"><g fill="#78CDD2"><path d="M92.3 21.5h12.8c.6 0 1-.5 1-1.1 0-.6-.5-1-1-1H92.3c-.6 0-1 .5-1 1 0 .7.5 1.1 1 1.1z"/><path d="M117.8 14c-.2-.2-.5-.4-.8-.4h-.7L114.5 5c-.1-.3-.2-.5-.4-.7-.2-.1-.5-.2-.8-.2L92.9 8.2c-1-2.3-1.8-2.6-2.4-2.6h-4.6c-1.2 0-2.3 1.1-2.3 2.3v5.6H82c-.3 0-.6.1-.8.4-.2.2-.3.5-.2.8L83.7 34c.1.5.5.9 1 .9h29.5c.5 0 1-.4 1-.9l2.7-19.3c.2-.2.1-.5-.1-.7zm-29.3-2.6l24.1-4.9 1.4 7.1H89l-.5-2.2zm-2.2-1.5c-.2.2-.2.5-.1.8l.6 2.8h-1V8c0-.1.1-.1.1-.1h4.3c.1.1.3.4.5.8l-3.7.8c-.3 0-.6.2-.7.4zm29.4 5.9l-2.4 17.1H85.6l-2.4-17.1h32.5z"/></g><g fill="#78CDD2"><path d="M193.9 3.5h-4.3V2.1c0-.6-.5-1.1-1.1-1.1s-1.1.5-1.1 1.1v1.3H181V2.1c0-.6-.5-1.1-1.1-1.1s-1.1.5-1.1 1.1v1.3h-6.3V2.1c0-.6-.5-1.1-1.1-1.1s-1.1.5-1.1 1.1v1.3h-4.1c-.6 0-1.1.5-1.1 1.1v33.3c0 .6.5 1.1 1.1 1.1h27.7c.6 0 1.1-.5 1.1-1.1V4.6c0-.6-.5-1.1-1.1-1.1zm-23.6 3c-1.3.5-2.2 1.8-2.2 3.1 0 1.9 1.4 3.3 3.3 3.3s3.3-1.4 3.3-3.3c0-1.4-.9-2.7-2.2-3.1v-.9h6.3v.8c-1.3.5-2.2 1.8-2.2 3.1 0 1.9 1.4 3.3 3.3 3.3 1.8 0 3.3-1.4 3.3-3.3 0-1.4-.9-2.7-2.2-3.1v-.8h6.3v.8c-1.3.5-2.2 1.7-2.2 3.1 0 1.9 1.4 3.3 3.3 3.3s3.3-1.4 3.3-3.3c0-1.4-.9-2.7-2.2-3.1v-.8h3.2v31h-25.5v-31h3.2v.8l-.1.1z"/><path d="M171.6 33.1h16.7c.6 0 1.1-.5 1.1-1.1s-.5-1.1-1.1-1.1h-16.7c-.6 0-1.1.5-1.1 1.1s.5 1.1 1.1 1.1zm0-4.9h16.7c.6 0 1.1-.5 1.1-1.1s-.5-1.1-1.1-1.1h-16.7c-.6 0-1.1.5-1.1 1.1s.5 1.1 1.1 1.1zm0-5.1h16.7c.6 0 1.1-.5 1.1-1.1s-.5-1.1-1.1-1.1h-16.7c-.6 0-1.1.5-1.1 1.1s.5 1.1 1.1 1.1zm0-4.8h7.6c.6 0 1.1-.5 1.1-1.1s-.5-1.1-1.1-1.1h-7.6c-.6 0-1.1.5-1.1 1.1s.5 1.1 1.1 1.1z"/></g><g fill="#78CDD2"><path d="M75.5 9.1l-2.4-2.3c-.2-.3-.6-.4-.9-.4H72c-.3.1-.6.2-.8.4l-2.1 2c-.3.3-.4.8-.2 1.2 0 0 2.8 3.3 3.8 3.3.3 0 .6-.1.8-.3l2.1-2c.2-.2.4-.5.4-.8-.1-.4-.2-.8-.5-1.1zm-2.3 1l-.7.7-1.1-1.1.7-.7 1.1 1.1zM58.1 25.2c.3 0 .6-.1.8-.3l7.2-7.1c.2-.2.3-.5.3-.8s-.1-.6-.3-.8c-.4-.4-1.1-.4-1.6 0l-7.2 7.1c-.2.2-.3.5-.3.8 0 .3.1.6.3.8.1.2.5.3.8.3z"/><path d="M62.1 8.3V7.2h.1c.3 0 .6-.1.9-.3.4-.3.6-.7.6-1.1V2.4c0-.4-.2-.8-.6-1.1-.3-.2-.6-.3-.9-.3h-6.8c-.3 0-.6.1-.9.3-.4.3-.6.7-.6 1.1v3.3c0 .4.2.8.6 1.1.3.2.6.3.9.3h.1v1.1C48.2 9.8 43 16.2 43 23.5 43 32.1 50.1 39 58.8 39s15.8-7 15.8-15.5c-.1-7.3-5.4-13.7-12.5-15.2zm-3.3 1.9c7.4 0 13.4 6 13.4 13.3s-6 13.3-13.4 13.3-13.4-6-13.4-13.3 5.9-13.3 13.4-13.3zm1-4.1V8h-2V6.1c0-.6-.5-1.1-1.1-1.1h-.4V3.3h5.1V5H61c-.7 0-1.2.5-1.2 1.1z"/></g><path fill="#78CDD2" d="M156.9 18.1s-1.1-1.5-1.8-2.5l.6-.6c.4-.4.4-1.1 0-1.5L144.4 2.3c-.4-.4-1.1-.4-1.6 0l-20.5 20.3c-.4.4-.4 1.1 0 1.5l6.8 6.7v2c0 3.4 5.9 5.2 11.8 5.2 5.8 0 11.8-1.8 11.8-5.2V22.5l4-2.9c.2-.2.4-.4.4-.7 0-.3-.1-.5-.2-.8zm-3.5-.8l.9 1.2-2.7 2c-.2-.2-.5-.4-.8-.7l2.6-2.5zm-4.2 11.9c-1.5.8-4.4 1.6-8.3 1.6h-1c-.9 0-1.9-.1-2.7-.2-1.9-.3-3.5-.8-4.6-1.4-.4-.2-.7-.4-.9-.6-.2-.2-.3-.4-.3-.5v-2.2c2.1 1.2 5.5 2.1 9.4 2.1h.3c1.7 0 3.3-.2 4.9-.4 1.9-.4 3.5-.9 4.7-1.6v2.2c0 .2-.1.4-.3.5-.5 0-.8.2-1.2.5zm-.5-5c-.9.5-2.3.8-3.7 1.1-.2 0-.5.1-.7.1-.7.1-1.5.2-2.3.2h-1.2c-3.1 0-6-.5-7.9-1.4-.4-.2-.8-.4-1-.7-.2-.2-.4-.4-.5-.6 0-.1-.1-.2-.1-.3 0-1.2 3.9-3 9.6-3 2.5 0 5 .4 6.9 1 .5.2 1 .4 1.4.6.5.3.8.5 1 .8.2.2.3.4.3.6 0 .1 0 .2-.1.3-.1.2-.2.4-.5.6-.3.2-.6.5-1.2.7zM131.3 31c1.1.7 2.7 1.2 4.5 1.5.7.1 1.5.2 2.3.3.9.1 2 .1 2.9.1 3.9 0 7.5-.8 9.6-2.1v1.9c0 1.2-3.9 3-9.6 3-2.4 0-4.7-.3-6.6-.9h-.1c-2.2-.7-2.9-1.5-2.9-2.1l-.1-1.7c.1 0 0 0 0 0zm9.5-13.5c-5.8 0-11.8 1.8-11.8 5.2v5.2l-4.5-4.4 18.9-18.8 9.8 9.7-4.5 4.4c-2-.9-5-1.3-7.9-1.3z"/><g fill="#78CDD2"><path d="M19.5 28.5H8c-.6 0-1.1.5-1.1 1.1 0 .6.5 1.1 1.1 1.1h11.5c.6 0 1.1-.5 1.1-1.1.1-.6-.4-1.1-1.1-1.1zm0-5.2H8c-.6 0-1.1.5-1.1 1.1 0 .6.5 1.1 1.1 1.1h11.5c.6 0 1.1-.5 1.1-1.1.1-.6-.4-1.1-1.1-1.1zM8 18c-.6 0-1.1.5-1.1 1.1 0 .6.5 1.1 1.1 1.1h11.5c.6 0 1.1-.5 1.1-1.1 0-.6-.5-1.1-1.1-1.1H8zm0-2.9h4.3c.6 0 1.1-.5 1.1-1.1s-.5-1.1-1.1-1.1H8c-.6 0-1.1.5-1.1 1.1s.5 1.1 1.1 1.1z"/><path d="M21.2 1.7c-.4-.4-1-.7-1.6-.7H3.3C2 1 1 2 1 3.3v33.3C1 38 2 39 3.3 39h21.4c1.3 0 2.3-1 2.3-2.3V8.5c0-.6-.3-1.2-.7-1.7.1 0-5.1-5.1-5.1-5.1zm3.6 8v27c0 .1-.1.1-.1.1H3.3c-.1 0-.1-.1-.1-.1V3.3c0-.1.1-.1.1-.1h15v5.3c0 .6.5 1.1 1.1 1.1l5.4.1zm-4.1-5.4l3.2 3.1h-3.1c0-.1-.1-3.1-.1-3.1zm17.9-2.5c-.3-.5-.9-.8-1.4-.8H32c-.6 0-1.1.3-1.4.8-.3.4-.4.9-.4 1.4v24.1c0 .2 0 .5.1.7l2.6 9.1c.2.7.7 1.3 1.3 1.4h.7c.4-.1.8-.4 1-.8.1-.2.2-.4.3-.7l2.6-9.1c.1-.2.1-.5.1-.7V3.1c.1-.5 0-.9-.3-1.3zm-2.1 26.7l-1.6 5.7h-.5l-1.6-5.7h3.7zm.3-25.3v23h-4.4v-23h4.4z"/></g><defs><path id="a" d="M200 7h39.4v27.9H200z"/></defs><clipPath id="b"><use xlink:href="#a" overflow="visible"/></clipPath><path clip-path="url(#b)" fill="#78CDD2" d="M200 32.3V9.6c0-1.4 1.1-2.6 2.5-2.6h34.4c1.4 0 2.5 1.1 2.5 2.6v22.8c0 1.4-1.1 2.6-2.5 2.6h-34.4c-1.4-.1-2.5-1.3-2.5-2.7m37.2-22.7c0-.2-.1-.3-.3-.3h-34.4c-.2 0-.3.1-.3.3v22.8c0 .2.1.3.3.3h34.4c.2 0 .3-.1.3-.3V9.6z"/><path clip-path="url(#b)" fill="#78CDD2" d="M219.5 25.3c-.3 0-.5-.1-.7-.3l-14.5-12c-.5-.4-.6-1.2-.2-1.7.4-.5 1.2-.6 1.7-.2l13.8 11.4 14.1-11.3c.5-.4 1.3-.3 1.7.2.4.5.3 1.3-.2 1.7l-15 11.9c-.2.2-.5.3-.7.3"/></svg>