<svg xmlns="http://www.w3.org/2000/svg" xmlns:xlink="http://www.w3.org/1999/xlink" width="16" height="16" viewBox="0 0 16 16">

<g class="icon" fill="#00CCBC">

<rect width="1.091" height="8.727" x="7.455" y="3.636" transform="rotate(90 8 8)" rx=".545"></rect>

<path d="M1.35,8 C1.35,11.6725489 4.32745108,14.65 8,14.65 C11.6725489,14.65 14.65,11.6725489 14.65,8 C14.65,4.32745108 11.6725489,1.35 8,1.35 C4.32745108,1.35 1.35,4.32745108 1.35,8 Z M0,8 C0,3.58186667 3.58186667,0 8,0 C12.4181333,0 16,3.58186667 16,8 C16,12.4181333 12.4181333,16 8,16 C3.58186667,16 0,12.4181333 0,8 Z"></path>

</g>

</svg>