<svg xmlns="http://www.w3.org/2000/svg" >

<g>
    <title>Layer 1</title>
    <path id="svg_1" fill="#E41937" d="M11.737,37.994c-6.974-2.044-9.792-8.517-9.513-14.58c0.121-2.498,1.136-4.871,2.856-6.684
        c-0.317,1.361-0.076,5.772,2.344,7.724c-0.509-2.117-0.458-4.332,0.148-6.424c1.786-4.854,6.85-6.158,6.321-10.582
        c-0.14-1.438-0.58-2.829-1.294-4.084c2.896,0.978,5.447,2.774,7.34,5.174c1.51,1.938,2.327,4.323,2.321,6.779
        c-0.008,0.871-0.109,1.735-0.306,2.584c0.392-1.036,0.98-1.984,1.732-2.797c1.312-1.285,2.911-2.24,4.665-2.785
        c-1.017,1.979-1.38,4.23-1.036,6.429c0.408,2.456,2.307,5.693,1.836,9.54c-0.329,4.559-3.479,8.424-7.88,9.672
        C18.136,37.226,14.869,37.238,11.737,37.994z"/>
    <path id="svg_2" fill="#98012E" d="M21.274,37.96c1.948-2.389,3.341-6.823,1.074-9.356c-0.171,1.49-0.834,2.879-1.879,3.95
        c0.396-0.756,0.536-1.622,0.408-2.467c-0.328-3.118-3.19-3.673-3.297-5.651c-0.097-0.848,0.071-1.703,0.476-2.45
        c-1.373,0.505-2.563,1.409-3.422,2.594c-0.71,0.988-1.088,2.179-1.083,3.397c0.003,0.435,0.052,0.869,0.142,1.295
        c-0.179-0.514-0.453-0.989-0.808-1.402c-0.6-0.636-1.345-1.115-2.174-1.396c1.481,3.787-0.606,4.036-1.032,6.298
        c-0.537,2.123,1.387,4.479,2.06,5.223c1.545,0.485,3.141,0.789,4.755,0.909C18.121,38.798,19.728,38.479,21.274,37.96z"/>
</g>
<rect fill="none" width="257" height="50"/>
</svg>
